<svg width="15" height="15" viewBox="0 0 15 15" fill="none" xmlns="http://www.w3.org/2000/svg">
<path d="M13.7812 5.62507C13.6875 5.29695 13.5469 4.96882 13.4062 4.68757C12.4219 2.67187 10.5 1.26577 8.25 0.984375L8.01562 0.9375H7.5H6.98437L6.70312 0.984375C4.45312 1.21875 2.53132 2.62507 1.54687 4.68757C1.40625 4.96882 1.26562 5.29695 1.17187 5.62507C0.796875 6.84382 0.796875 8.15632 1.17187 9.37507C1.26562 9.7032 1.40625 10.0313 1.54687 10.3126C2.53125 12.3283 4.45312 13.7344 6.70312 14.0158L6.98437 14.0627H7.5H8.01562L8.29687 14.0158C10.5469 13.7345 12.4687 12.3283 13.4531 10.3126C13.5937 10.0313 13.7344 9.7032 13.8281 9.37507C14.1562 8.10945 14.1562 6.84382 13.7812 5.62507ZM12.375 4.68757H9.9375C9.70312 3.75007 9.32812 2.85937 8.8125 2.01577C10.3125 2.39077 11.5782 3.32827 12.375 4.68757ZM9.375 7.50007C9.375 8.10945 9.32812 8.7657 9.1875 9.37507H5.7657C5.53132 8.15632 5.53132 6.84382 5.7657 5.62507H9.1875C9.32812 6.23445 9.375 6.8907 9.375 7.50007ZM9 10.3126C8.71875 11.3438 8.25 12.2813 7.59375 13.1251H7.45312C6.79687 12.2813 6.32812 11.3438 6.04687 10.3126H9ZM6 4.68757C6.28125 3.65632 6.75 2.71882 7.40625 1.87507H7.54687C8.20312 2.71882 8.67187 3.65632 8.95312 4.68757H6ZM6.1875 2.01577C5.67187 2.85952 5.29687 3.75007 5.0625 4.68757H2.625C3.42187 3.3282 4.6875 2.39077 6.1875 2.01577ZM1.875 7.50007C1.875 6.84382 1.96875 6.23445 2.20312 5.62507H4.87492C4.64055 6.84382 4.64055 8.15632 4.87492 9.37507H2.20312C1.96875 8.7657 1.875 8.15632 1.875 7.50007ZM2.625 10.3126H5.0625C5.29687 11.2501 5.67187 12.1408 6.1875 12.9844C4.6875 12.6094 3.4218 11.6719 2.625 10.3126ZM8.8125 12.9844C9.32812 12.1406 9.70312 11.2501 9.9375 10.3126H12.375C11.5781 11.6719 10.3125 12.6094 8.8125 12.9844ZM10.1719 9.37507C10.2656 8.7657 10.3125 8.10945 10.3125 7.50007C10.3125 6.8907 10.2656 6.23445 10.1719 5.62507H12.7969C13.2187 6.84382 13.2187 8.15632 12.7969 9.37507H10.1719Z" fill="#3B4C66"/>
</svg>
