<svg width="14" height="14" viewBox="0 0 14 14" fill="none" xmlns="http://www.w3.org/2000/svg">
<path d="M2.65321 13.1836C2.77845 13.2776 2.94469 13.2978 3.08907 13.2361L5.95585 12.0078V12.0072C7.74029 12.3425 9.57779 11.806 10.9018 10.5624C12.2258 9.31938 12.877 7.51967 12.6546 5.71717C12.4325 3.91467 11.3634 2.32651 9.77743 1.44227C8.19095 0.557976 6.27799 0.483594 4.62809 1.24266C2.97819 2.00118 1.78931 3.50128 1.42839 5.28138C1.06691 7.06092 1.5766 8.90612 2.79996 10.2482L2.48387 12.7791C2.46363 12.9349 2.52871 13.0891 2.65339 13.1838L2.65321 13.1836ZM2.18728 6.41651C2.18618 5.08049 2.74017 3.80355 3.71692 2.89187C4.69364 1.97969 6.00564 1.51485 7.33886 1.60781C8.67159 1.70023 9.90646 2.34281 10.747 3.38133C11.5881 4.41985 11.96 5.76133 11.7735 7.08419C11.587 8.40762 10.8591 9.59383 9.76422 10.3599C8.66883 11.1255 7.30498 11.4017 5.9985 11.1228C5.9099 11.1047 5.81802 11.114 5.73491 11.149L3.44521 12.1334L3.69239 10.1499C3.7088 10.017 3.66395 9.88466 3.57044 9.78896C2.68231 8.89153 2.18521 7.67916 2.18739 6.41636L2.18728 6.41651Z" fill="#3B4C66"/>
<path d="M5.25 5.6875H7.58352C7.8247 5.6875 8.02102 5.49172 8.02102 5.25C8.02102 5.00828 7.8247 4.8125 7.58352 4.8125H5.25C5.00828 4.8125 4.8125 5.00828 4.8125 5.25C4.8125 5.49172 5.00828 5.6875 5.25 5.6875Z" fill="#3B4C66"/>
<path d="M5.25 8.021H8.75C8.99172 8.021 9.1875 7.82467 9.1875 7.5835C9.1875 7.34177 8.99172 7.146 8.75 7.146H5.25C5.00828 7.146 4.8125 7.34177 4.8125 7.5835C4.8125 7.82467 5.00828 8.021 5.25 8.021Z" fill="#3B4C66"/>
</svg>
