<svg width="15" height="15" viewBox="0 0 15 15" fill="none" xmlns="http://www.w3.org/2000/svg">
<path d="M1.09375 11.1405H6.547L4.9996 12.5784L5.64003 13.2657L7.51503 11.5314L9.37428 13.25L10.0147 12.5627L8.48365 11.1406H13.9059V1.60913L1.09375 1.60972V11.1405ZM2.03125 2.54717H12.969V10.2036L2.03125 10.203V2.54717Z" fill="#3B4C66"/>
<path d="M7.29648 4.00024H6.82773C6.03085 4.00024 5.29668 4.31254 4.73418 4.87504C4.17167 5.43754 3.85938 6.17172 3.85938 6.96859C3.85938 8.60929 5.1877 9.93754 6.82833 9.93754C7.6252 9.93754 8.35938 9.62524 8.92188 9.06274C9.48438 8.50024 9.79668 7.76607 9.79668 6.96919V6.50044H7.29648V4.00024ZM8.79648 7.42204C8.71855 7.78122 8.53105 8.10934 8.26503 8.39059C7.89003 8.76559 7.3744 8.98414 6.82773 8.98414C5.71855 8.98414 4.79628 8.07769 4.79628 6.95269C4.79628 6.40602 4.9996 5.90562 5.38983 5.51539C5.65525 5.24997 5.98338 5.06247 6.35838 4.98394V7.42144L8.79648 7.42204Z" fill="#3B4C66"/>
<path d="M8.17187 2.67188H7.70312V6.10957H11.1408V5.64082C11.1408 4.84395 10.8285 4.10977 10.266 3.54728C9.70294 2.98419 8.96876 2.67189 8.17187 2.67189V2.67188ZM8.64062 5.17207V3.67207C8.9998 3.75 9.32792 3.9375 9.60917 4.20352C9.89042 4.46895 10.0621 4.79707 10.1406 5.17207H8.64062Z" fill="#3B4C66"/>
</svg>
