<svg width="17" height="17" viewBox="0 0 17 17" fill="none" xmlns="http://www.w3.org/2000/svg">
<path d="M10.778 4.74275C10.778 3.48502 9.75797 2.46509 8.50031 2.46509C7.24266 2.46509 6.22266 3.48509 6.22266 4.74275C6.22266 6.00048 7.24266 7.02041 8.50031 7.02041C9.75804 7.02107 10.778 5.9838 10.778 4.74275ZM7.24249 4.74275C7.24249 4.04548 7.80362 3.48502 8.50021 3.48502C9.19748 3.48502 9.75794 4.04616 9.75794 4.74275C9.75794 5.44002 9.1968 6.00048 8.50021 6.00048C7.80294 5.98388 7.24249 5.42275 7.24249 4.74275Z" fill="#3B4C66"/>
<path d="M15.6061 4.74275C15.6061 3.48502 14.5861 2.46509 13.3284 2.46509C12.0707 2.46509 11.0508 3.48509 11.0508 4.74275C11.0508 6.00048 12.0708 7.02041 13.3284 7.02041C14.5862 7.02107 15.6061 5.9838 15.6061 4.74275ZM12.0873 4.74275C12.0873 4.04548 12.6484 3.48502 13.345 3.48502C14.0423 3.48502 14.6027 4.04616 14.6027 4.74275C14.6027 5.44002 14.0416 6.00048 13.345 6.00048C12.6477 5.98388 12.0873 5.42275 12.0873 4.74275Z" fill="#3B4C66"/>
<path d="M0.272363 10.149V13.3451H5.10002V14.5351H11.8827V13.3451H16.7103L16.711 10.149C16.711 8.65282 15.4871 7.42896 13.991 7.42896H12.6483C12.0021 7.42896 11.3906 7.65009 10.8971 8.05782C10.421 7.66668 9.80938 7.42896 9.14594 7.42896H7.80321C7.14048 7.42896 6.52821 7.66668 6.05204 8.05782C5.55931 7.65009 4.94704 7.42896 4.30087 7.42896H2.95814C1.49587 7.42896 0.271973 8.63623 0.271973 10.149H0.272363ZM14.0079 8.44896C14.9429 8.44896 15.7079 9.21396 15.7079 10.149V12.3251H11.8829V10.149C11.8829 9.67282 11.764 9.24782 11.5601 8.85668C11.8663 8.60168 12.2574 8.44896 12.6651 8.44896H14.0079ZM7.83737 8.44896H9.18009C10.1151 8.44896 10.8801 9.21396 10.8801 10.149V13.5151H6.13743V10.149C6.13743 9.21396 6.88516 8.44896 7.83743 8.44896H7.83737ZM1.29236 10.149C1.29236 9.21396 2.05736 8.44896 2.99236 8.44896H4.33509C4.74282 8.44896 5.13396 8.60169 5.44009 8.85668C5.23623 9.24782 5.11736 9.68941 5.11736 10.149V12.3251H1.29236V10.149Z" fill="#3B4C66"/>
<path d="M5.93276 4.74275C5.93276 3.48502 4.91276 2.46509 3.6551 2.46509C2.39744 2.46509 1.37744 3.48509 1.37744 4.74275C1.37744 6.00048 2.39744 7.02041 3.6551 7.02041C4.91283 7.02107 5.93276 5.9838 5.93276 4.74275ZM2.41393 4.74275C2.41393 4.04548 2.97507 3.48502 3.67166 3.48502C4.36893 3.48502 4.92939 4.04616 4.92939 4.74275C4.92939 5.44002 4.36825 6.00048 3.67166 6.00048C2.97505 5.98388 2.41393 5.42275 2.41393 4.74275Z" fill="#3B4C66"/>
</svg>
