<svg width="15" height="15" viewBox="0 0 15 15" fill="none" xmlns="http://www.w3.org/2000/svg">
<g clip-path="url(#clip0_431_3620)">
<path d="M12.0754 15.2086C11.9583 15.2086 11.8419 15.1739 11.742 15.1062L7.97046 12.5479L5.94759 14.0034C5.78893 14.1175 5.58445 14.1463 5.40023 14.0804C5.21624 14.0144 5.07651 13.862 5.02664 13.673L4.01093 9.82375L0.381677 8.43603C0.153202 8.34863 0.00167632 8.13005 1.38152e-05 7.88543C-0.00164869 7.6408 0.146868 7.42016 0.374236 7.32968L14.174 1.83866C14.2366 1.81206 14.3029 1.7967 14.3697 1.79258C14.3936 1.79116 14.4176 1.79116 14.4414 1.7925C14.5798 1.80074 14.7157 1.8571 14.8218 1.96113C14.8328 1.9719 14.8433 1.9829 14.8531 1.99438C14.941 2.09476 14.9893 2.21715 14.9984 2.34184C15.0006 2.37319 15.0005 2.40494 14.9977 2.43668C14.9958 2.45933 14.9926 2.48189 14.988 2.50429L12.6586 14.726C12.6212 14.9223 12.4876 15.0867 12.3029 15.1632C12.2297 15.1936 12.1524 15.2086 12.0754 15.2086ZM8.30161 11.3376L11.6612 13.6164L13.4737 4.10655L6.92759 10.4055L8.28578 11.3269C8.29124 11.3303 8.29647 11.3339 8.30161 11.3376ZM5.50488 10.8308L5.95471 12.5353L6.92387 11.8379L5.65483 10.9771C5.59585 10.9372 5.54534 10.8874 5.50488 10.8308ZM2.22745 7.87031L4.71947 8.82308C4.89799 8.89132 5.03273 9.04142 5.0815 9.2262L5.39753 10.4239C5.41202 10.2858 5.47464 10.1558 5.57637 10.0578L11.8139 4.05589L2.22745 7.87031Z" fill="#3B4C66"/>
</g>
<defs>
<clipPath id="clip0_431_3620">
<rect width="15" height="15" fill="white"/>
</clipPath>
</defs>
</svg>
