<svg width="12" height="14" viewBox="0 0 12 14" fill="none" xmlns="http://www.w3.org/2000/svg">
<path d="M1.65321 13.1836C1.77845 13.2776 1.94469 13.2978 2.08907 13.2361L4.95585 12.0078V12.0072C6.74029 12.3425 8.57779 11.806 9.90177 10.5624C11.2258 9.31938 11.877 7.51967 11.6546 5.71717C11.4325 3.91467 10.3634 2.32651 8.77743 1.44227C7.19095 0.557976 5.27799 0.483594 3.62809 1.24266C1.97819 2.00118 0.789315 3.50128 0.428395 5.28138C0.0669148 7.06092 0.576599 8.90612 1.79996 10.2482L1.48387 12.7791C1.46363 12.9349 1.52871 13.0891 1.65339 13.1838L1.65321 13.1836ZM1.18728 6.41651C1.18618 5.08049 1.74017 3.80355 2.71692 2.89187C3.69364 1.97969 5.00564 1.51485 6.33886 1.60781C7.67159 1.70023 8.90646 2.34281 9.74702 3.38133C10.5881 4.41985 10.96 5.76133 10.7735 7.08419C10.587 8.40762 9.85913 9.59383 8.76422 10.3599C7.66883 11.1255 6.30498 11.4017 4.9985 11.1228C4.9099 11.1047 4.81802 11.114 4.73491 11.149L2.44521 12.1334L2.69239 10.1499C2.7088 10.017 2.66395 9.88466 2.57044 9.78896C1.68231 8.89153 1.18521 7.67916 1.18739 6.41636L1.18728 6.41651Z" fill="#3B4C66"/>
<path d="M4.25 5.6875H6.58352C6.8247 5.6875 7.02102 5.49172 7.02102 5.25C7.02102 5.00828 6.8247 4.8125 6.58352 4.8125H4.25C4.00828 4.8125 3.8125 5.00828 3.8125 5.25C3.8125 5.49172 4.00828 5.6875 4.25 5.6875Z" fill="#3B4C66"/>
<path d="M4.25 8.021H7.75C7.99172 8.021 8.1875 7.82467 8.1875 7.5835C8.1875 7.34177 7.99172 7.146 7.75 7.146H4.25C4.00828 7.146 3.8125 7.34177 3.8125 7.5835C3.8125 7.82467 4.00828 8.021 4.25 8.021Z" fill="#3B4C66"/>
</svg>
