<svg width="17" height="17" viewBox="0 0 17 17" fill="none" xmlns="http://www.w3.org/2000/svg">
<path d="M8.5 17C13.1944 17 17 13.1944 17 8.5C17 3.80558 13.1944 0 8.5 0C3.80558 0 0 3.80558 0 8.5C0 13.1944 3.80558 17 8.5 17Z" fill="#3B4C66"/>
<path fill-rule="evenodd" clip-rule="evenodd" d="M3.84758 8.41028C6.3255 7.33069 7.97784 6.61895 8.80459 6.27508C11.1651 5.29325 11.6556 5.1227 11.9753 5.11706C12.0456 5.11583 12.2029 5.13325 12.3047 5.21589C12.3907 5.28566 12.4144 5.37992 12.4257 5.44608C12.437 5.51223 12.4511 5.66294 12.4399 5.7807C12.312 7.12475 11.7585 10.3864 11.4769 11.8918C11.3577 12.5287 11.1231 12.7423 10.896 12.7632C10.4024 12.8086 10.0276 12.437 9.54946 12.1236C8.80135 11.6332 8.37872 11.3279 7.65255 10.8494C6.81333 10.2964 7.35736 9.99242 7.83563 9.49567C7.96079 9.36567 10.1357 7.38746 10.1777 7.20801C10.183 7.18557 10.1879 7.10191 10.1382 7.05773C10.0885 7.01356 10.0151 7.02866 9.96221 7.04068C9.88718 7.05771 8.69206 7.84763 6.37686 9.41046C6.03763 9.6434 5.73037 9.7569 5.45507 9.75095C5.15157 9.74439 4.56777 9.57935 4.13378 9.43827C3.60147 9.26524 3.17839 9.17375 3.21523 8.87989C3.23442 8.72683 3.4452 8.57029 3.84758 8.41028Z" fill="white"/>
</svg>
