<svg width="17" height="18" viewBox="0 0 17 18" fill="none" xmlns="http://www.w3.org/2000/svg">
<rect x="3" y="3" width="11" height="11" fill="white"/>
<path d="M15.2899 0H1.71013C1.25552 0.00174129 0.82016 0.183737 0.499561 0.506062C0.178963 0.828387 -0.000695495 1.26472 4.57156e-06 1.71934V15.4859C-0.00104438 15.9407 0.178459 16.3774 0.499096 16.7C0.819732 17.0226 1.25529 17.2048 1.71013 17.2065H15.2899C15.7447 17.2048 16.1803 17.0226 16.5009 16.7C16.8215 16.3774 17.001 15.9407 17 15.4859V1.72065C17.001 1.26581 16.8215 0.829138 16.5009 0.506528C16.1803 0.183918 15.7447 0.00174149 15.2899 0ZM5.45268 13.6139H3.16506V6.25512H5.45268V13.6139ZM4.29374 5.35139C3.57154 5.35139 3.10981 4.83966 3.10981 4.20823C3.10981 3.5768 3.59127 3.06507 4.32926 3.06507C5.06725 3.06507 5.51319 3.56101 5.53293 4.20955C5.55266 4.85808 5.06067 5.35139 4.29374 5.35139ZM13.8047 13.6139H11.5171V9.53594C11.5171 8.58747 11.1856 7.94026 10.3581 7.94026C9.72669 7.94026 9.35046 8.377 9.18471 8.79795C9.12631 8.98282 9.10093 9.17652 9.10973 9.37018V13.6139H6.82079V8.60194C6.82079 7.68111 6.79053 6.91681 6.76027 6.25381H8.74666L8.85189 7.27725H8.89662C9.14397 6.90329 9.48241 6.5984 9.88007 6.39128C10.2777 6.18417 10.7216 6.08163 11.1698 6.09332C12.6747 6.09332 13.8007 7.10229 13.8007 9.26889V13.6192L13.8047 13.6139Z" fill="#3B4C66"/>
</svg>
