<svg width="15" height="15" viewBox="0 0 15 15" fill="none" xmlns="http://www.w3.org/2000/svg">
<path d="M1.4062 3.98429C0.857767 4.555 0.532567 5.30324 0.489787 6.09359C0.332752 7.76234 1.04057 9.60929 2.42809 11.1936C3.77575 12.7287 5.42344 13.8279 7.06879 14.2827C7.59203 14.4339 8.13403 14.513 8.67889 14.5171C9.56834 14.5493 10.4384 14.2528 11.1234 13.685C11.7176 13.221 11.9672 12.4411 11.7539 11.7187C11.6039 11.2499 10.9406 11.0156 10.5609 10.9148C9.1711 10.5656 8.89684 10.4882 8.24059 10.3054C7.78355 10.1741 7.51168 10.5937 7.33355 10.8726C7.25387 10.9968 7.08512 11.2593 7.00309 11.2851C6.51091 11.1538 5.90387 10.7273 5.26879 10.078H13.5938C13.718 10.078 13.8375 10.0288 13.9254 9.94093C14.0133 9.85304 14.0625 9.73351 14.0625 9.6093V0.9375C14.0614 0.895899 14.0543 0.854883 14.0414 0.815625C14.0274 0.773437 14.0069 0.734179 13.9805 0.698437C13.9553 0.663867 13.9248 0.633399 13.8891 0.609375C13.8522 0.584179 13.8118 0.564258 13.7696 0.550782H13.7532C13.7051 0.514453 13.6512 0.486915 13.5938 0.46875H1.87503C1.82991 0.469922 1.7848 0.476953 1.74144 0.489843H1.72269C1.68109 0.50332 1.64124 0.522655 1.6055 0.548436C1.56976 0.57246 1.53929 0.602928 1.51409 0.637498H1.50237C1.47601 0.67324 1.4555 0.712498 1.44144 0.754686C1.41917 0.813279 1.40745 0.874803 1.40628 0.937506L1.4062 3.98429ZM8.12335 11.3788C8.14444 11.3437 8.17022 11.3038 8.196 11.2663C8.72804 11.414 9.08663 11.5007 10.3335 11.8242C10.5257 11.8634 10.7091 11.939 10.8726 12.0468C10.9347 12.4037 10.7923 12.7652 10.5046 12.9843C9.80149 13.6054 8.62961 13.7507 7.32176 13.3828C5.84754 12.9703 4.35926 11.9765 3.13106 10.5844C1.90286 9.1922 1.29116 7.59845 1.42241 6.18755C1.48803 5.48443 1.75757 4.88677 2.16303 4.57265C2.31362 4.45605 2.4894 4.37578 2.67632 4.33828L2.8521 4.30312C2.99039 4.275 3.12867 4.24687 3.22476 4.23281C3.23648 4.26562 3.2482 4.3125 3.26461 4.37343C3.28101 4.43437 3.67945 6.01413 3.89743 6.89058C3.37009 7.26558 2.5568 7.86792 2.90836 8.53128C2.92769 8.56937 2.94879 8.6057 2.97164 8.64144C3.23823 9.08676 3.53648 9.51215 3.8646 9.9141C4.56773 10.7954 5.6529 11.9062 6.7638 12.1992C7.48098 12.3773 7.89818 11.7187 8.12318 11.3789L8.12335 11.3788ZM4.453 9.14054C4.38269 9.04679 4.31472 8.95772 4.25378 8.87336L4.21863 8.83118L4.05925 8.5968L4.03113 8.55227L3.90456 8.36243L3.88816 8.3343C3.85066 8.27571 3.8155 8.2218 3.78972 8.17727C3.99597 7.96047 4.22742 7.76945 4.47879 7.60773C4.71316 7.43898 4.96395 7.26555 4.87254 6.9468C4.74598 6.43587 4.1952 4.22805 4.16941 4.11555C3.91863 3.16164 3.46629 3.20618 2.66476 3.37023L2.48898 3.40539C2.43976 3.40539 2.39289 3.42648 2.34367 3.44055V1.91235L7.44367 5.92245C7.61417 6.05721 7.85441 6.05721 8.02492 5.92245L13.1249 1.91235V9.14055L4.453 9.14054ZM12.2389 1.40624L7.73425 4.95944L3.2296 1.40624H12.2389Z" fill="white"/>
</svg>
