<svg width="578" height="280" viewBox="0 0 578 280" fill="none" xmlns="http://www.w3.org/2000/svg">
<path d="M566.771 143.798C546.818 118.682 488.071 62.917 453.446 62.917C386.688 62.917 367.966 279.079 288.94 279.079C209.913 279.079 191.192 62.917 124.434 62.917C89.8088 62.917 31.062 118.682 11.183 143.798C10.3045 144.882 9.06274 145.612 7.68765 145.851C6.31256 146.09 4.89737 145.823 3.70422 145.099C2.51107 144.375 1.62083 143.243 1.19839 141.912C0.775961 140.582 0.849967 139.144 1.4067 137.864C21.5676 91.4152 86.2336 0.921295 129.997 0.921295C200.731 0.921295 180.303 216.297 288.94 216.297C397.577 216.297 377.149 0.921295 447.883 0.921295C491.646 0.921295 556.268 91.4152 576.547 137.879C579.232 144.035 570.954 149.064 566.771 143.798Z" fill="url(#paint0_linear_78_87)"/>
<defs>
<linearGradient id="paint0_linear_78_87" x1="289" y1="0.921295" x2="289" y2="279.079" gradientUnits="userSpaceOnUse">
<stop stop-color="#6590FF"/>
<stop offset="0.291485" stop-color="#739AFF"/>
<stop offset="0.593472" stop-color="white"/>
<stop offset="0.708515" stop-color="#FFF3B4"/>
<stop offset="0.91703" stop-color="#FFD600"/>
</linearGradient>
</defs>
</svg>
